<?xml version="1.0" encoding="utf-8"?>
<!-- Generator: Adobe Illustrator 21.1.0, SVG Export Plug-In . SVG Version: 6.00 Build 0)  -->
<svg version="1.1" id="Capa_1" xmlns="http://www.w3.org/2000/svg" xmlns:xlink="http://www.w3.org/1999/xlink" x="0px" y="0px"
	 viewBox="0 0 34 34"   width="34px" height="34px" style="enable-background:new 0 0 34 34;" xml:space="preserve">
<style type="text/css">
	.st0{fill:#1D1D1B;}
	.st1{fill:#171715;}
</style>
<g>
	<g>
		<path class="st0" d="M17,34C7.6,34,0,26.4,0,17S7.6,0,17,0s17,7.6,17,17S26.4,34,17,34z M17,2C8.7,2,2,8.7,2,17s6.7,15,15,15
			s15-6.7,15-15S25.3,2,17,2z"/>
	</g>
</g>
<g>
	<g>
		<path class="st0" d="M23,26.7H11c-0.6,0-1.1-0.2-1.5-0.6s-0.6-1-0.6-1.5V12.7c0-0.5,0.2-1,0.6-1.4l3-3.3c0.4-0.4,1-0.7,1.6-0.7H23
			c1.2,0,2.2,1,2.2,2.2l0,15.2c0,0.6-0.2,1.1-0.6,1.5S23.5,26.7,23,26.7z M11,14.3v10.3c0,0,0,0,0,0s0,0,0,0H23c0,0,0,0,0,0
			c0,0,0,0,0,0l0-15.2c0,0,0,0,0,0h-7.1v2.4c0,0.7-0.3,1.3-0.7,1.7s-1.1,0.7-1.7,0.7C13.4,14.3,11,14.3,11,14.3z M11.5,12.1h1.9
			c0.1,0,0.2,0,0.2-0.1c0.1-0.1,0.1-0.2,0.1-0.2V9.7L11.5,12.1z"/>
	</g>
	<g>
		<path class="st1" d="M20.7,18.6h-7.5c-0.6,0-1.1-0.5-1.1-1.1s0.5-1.1,1.1-1.1h7.5c0.6,0,1.1,0.5,1.1,1.1
			C21.7,18.1,21.3,18.6,20.7,18.6z"/>
	</g>
	<g>
		<path class="st1" d="M20.7,21.9h-7.5c-0.6,0-1.1-0.5-1.1-1.1c0-0.6,0.5-1.1,1.1-1.1h7.5c0.6,0,1.1,0.5,1.1,1.1
			C21.7,21.4,21.3,21.9,20.7,21.9z"/>
	</g>
</g>
</svg>
