<?xml version="1.0" encoding="utf-8"?>
<!-- Generator: Adobe Illustrator 21.1.0, SVG Export Plug-In . SVG Version: 6.00 Build 0)  -->
<svg version="1.1" id="Capa_1" xmlns="http://www.w3.org/2000/svg" xmlns:xlink="http://www.w3.org/1999/xlink" x="0px" y="0px"
	 viewBox="0 0 34 34"   width="34px" height="34px" style="enable-background:new 0 0 34 34;" xml:space="preserve">
<style type="text/css">
	.st0{fill:#1D1D1B;}
</style>
<g>
	<path class="st0" d="M23.8,17.8l-10.4,6.3C12.8,24.4,12,24,12,23.3V10.7c0-0.7,0.8-1.1,1.4-0.8l5.4,3.2l0,0l0,0l5.1,3.1
		C24.4,16.6,24.4,17.4,23.8,17.8z"/>
</g>
<g>
	<path class="st0" d="M17,34C7.6,34,0,26.4,0,17S7.6,0,17,0s17,7.6,17,17S26.4,34,17,34z M17,2C8.7,2,2,8.7,2,17s6.7,15,15,15
		s15-6.7,15-15S25.3,2,17,2z"/>
</g>
</svg>
