<?xml version="1.0" encoding="utf-8"?>
<!-- Generator: Adobe Illustrator 21.1.0, SVG Export Plug-In . SVG Version: 6.00 Build 0)  -->
<svg version="1.1" id="Capa_1" xmlns="http://www.w3.org/2000/svg" xmlns:xlink="http://www.w3.org/1999/xlink" x="0px" y="0px"
	 viewBox="0 0 34 34"   width="34px" height="34px" style="enable-background:new 0 0 34 34;" xml:space="preserve">
<style type="text/css">
	.st0{fill:#1D1D1B;}
</style>
<path class="st0" d="M25.5,14.9h-6.4V8.4c0-1.2-1-2.1-2.1-2.1c-1.2,0-2.1,0.9-2.1,2.1v6.5H8.5c-1.2,0-2.1,1-2.1,2.1s1,2.1,2.1,2.1
	h6.4v6.2c0,1.2,1,2.1,2.1,2.1s2.1-1,2.1-2.1v-6.2h6.4c1.2,0,2.1-1,2.1-2.1S26.7,14.9,25.5,14.9z"/>
<g>
	<path class="st0" d="M17,34C7.6,34,0,26.3,0,17S7.6,0,17,0s17,7.6,17,17S26.4,34,17,34z M17,1.9C8.7,1.9,2,8.7,2,17s6.7,15,15,15
		s15-6.7,15-15S25.3,1.9,17,1.9z"/>
</g>
</svg>
